<svg xmlns="http://www.w3.org/2000/svg" width="1024" height="1024" viewBox="0 0 1024 1024">
  <rect width="1024" height="1024" fill="#0A0A0C"/>
  <g transform="translate(304, 348) scale(9.13)">
    <path d="M22.9778 0C23.1987 0 23.4189 0.00268812 23.6385 0.00796051V3.56631H23.6421C23.8474 18.3042 32.9459 30.9722 46 36.8111C45.8171 37.1443 45.6267 37.473 45.4289 37.797L40.5675 35.0785L40.5306 35.1394C27.9107 29.0371 13.2713 30.1977 2.04112 37.2308L0.6519 38C0.425123 37.6363 0.207878 37.2666 0 36.8912L1.14508 36.2542C13.5592 30.1925 22.1145 17.8522 22.3135 3.56631H22.3171V0.00796051C22.5367 0.00268812 22.7569 0 22.9778 0Z" fill="#F2F0ED"/>
  </g>
</svg>
